<svg height="800pt" preserveAspectRatio="xMidYMid meet" viewBox="0 0 800 800" width="800pt" xmlns="http://www.w3.org/2000/svg"><g transform="matrix(.1 0 0 -.1 0 800)"><path d="m0 4000v-4000h4000 4000v4000 4000h-4000-4000zm1784 2019c98-14 197-49 351-126 120-59 141-66 208-71 71-4 75-3 106 24 27 24 34 39 39 84 6 51 9 55 35 58l27 3v-505-506h-30c-30 0-30 0-30 56 0 125-39 297-95 420-103 225-279 381-510 450-74 22-111 27-210 28-129 1-197-11-280-50-150-70-230-243-205-444 16-137 51-225 136-340 101-138 242-255 584-483 305-204 398-273 514-386 150-147 227-269 272-431 25-89 25-316 1-415-50-200-179-362-358-449-177-86-402-122-659-106-183 11-252 30-552 154-76 31-99 36-168 36-60 0-91-5-119-19-48-25-59-39-69-87-7-33-12-39-32-39h-25v640 640h25 25l6-135c24-502 216-859 542-1010 119-55 216-74 382-75 168 0 244 15 349 67 260 131 326 472 144 744-99 148-242 273-603 524-408 284-589 435-705 589-63 82-125 206-146 290-20 80-22 237-5 311 49 206 221 396 442 488 194 80 387 103 613 71zm2294-55c3-21-2-22-100-29-129-8-174-20-205-51-51-51-61-29 538-1267 305-630 557-1143 560-1139s87 241 188 528l182 521-286 589c-319 656-339 695-387 742-44 42-131 72-208 72h-60v30 30h895 895v-30c0-30-1-30-55-30-127 0-226-46-278-131-25-41-256-672-260-710-1-14 755-1592 772-1611 4-4 59 142 123 325 64 182 241 687 393 1120 151 434 280 811 285 839 20 105-38 156-187 166l-83 5v28 29h350 350v-29-28l-82-6c-138-9-207-46-263-142-13-22-247-679-519-1460-273-781-500-1427-504-1435-6-10-24-15-51-15h-42l-379 784c-209 431-381 785-383 787s-127-346-277-773c-150-428-277-784-283-791-6-8-26-12-49-10l-39 3-672 1395c-370 767-690 1427-710 1465-72 135-143 185-279 193l-78 5v28 29l593-2 592-3z"/><path d="m5258 5921c-74-15-115-63-102-119 10-45 297-643 305-635 17 19 201 563 206 609 12 113-42 147-242 150-71 2-146-1-167-5z"/></g></svg>