<svg height="150" viewBox="0 0 375 112.5" width="500" xmlns="http://www.w3.org/2000/svg"><path d="m58.290685 33.413976h.511719c0-.988281.671875-1.382812 1.816407-1.382812 1.898437 0 3.203124 1.855468 7.507812 1.855468 6.675781 0 8.769531-3.316406 8.769531-7.347656 0-8.453125-14.222656-9.71875-14.222656-17.460938 0-2.292968 1.265625-3.988281 4.425781-3.988281 4.386719 0 7.703125 3.554688 7.703125 8.847657h.515625v-9.324219h-.515625c0 1.1875-.316406 1.582031-1.34375 1.582031-1.617187 0-2.882812-2.015625-6.914062-2.015625-3.871094 0-8.214844 2.210937-8.214844 6.792969 0 7.625 14.617187 10.628906 14.617187 17.1875 0 3.515625-2.527343 4.742187-5.492187 4.742187-4.859375 0-8.652344-3.4375-8.652344-11.339843h-.511719zm31.797023.472656c6.242188 0 8.457031-4.542968 8.574219-9.125h-.511719c0 2.015625-1.066406 6.953125-6.519531 6.953125-5.175781 0-7.625-3.988281-7.625-9.519531 0-.355469 0-.710938.039062-1.066406h14.105469c0-4.1875-2.804687-7.664063-7.585937-7.664063-6.597656 0-10.507813 5.09375-10.507813 10.308594 0 5.847656 3.394531 10.113281 10.03125 10.113281zm-5.964843-13.273437c.515624-3.832031 2.886718-6.359375 6.046874-6.359375 4.148438 0 4.660157 3.476562 4.660157 6.359375zm16.707923-5.253907v.515626c2.054687 0 3.28125.589843 3.28125 2.171874v12.71875c0 1.820313-.871094 2.136719-2.804688 2.136719v.511719h9.953125v-.511719c-1.777343 0-3.199219-.277343-3.199219-2.136719v-11.730468c0-2.332032 2.371094-4.464844 5.136719-4.464844 2.648438 0 3.554688 1.578125 3.554688 4.621094v11.574218c0 1.820313-.867188 2.136719-2.765625 2.136719v.511719h9.523437v-.511719c-1.859375 0-2.804687-.316406-2.804687-2.175781v-10.902344c0-5.019531-3.4375-6.359375-6.203125-6.359375-3.4375 0-5.253907 1.539063-6.441407 3.394531v-2.921874zm25.164039 18.054688c0-.511719.238281-.871094.671875-.949219 1.582031-.316406 2.410156 1.421875 6.203125 1.421875 3.988281 0 6.675781-2.367187 6.714844-5.648437 0-7.464844-10.507813-5.453125-10.429688-11.257813 0-1.660156 1.1875-2.765625 2.964844-2.765625 3.355469 0 5.332031 2.804688 5.332031 6.160157h.554688l-.042969-6.4375h-.511719c0 .511718-.199219.988281-.75.988281-1.226562 0-2.410156-1.460938-4.976562-1.460938-3.714844 0-6.164063 2.171875-6.164063 5.609375.039063 7.03125 10.429688 4.660156 10.429688 10.824219 0 1.855469-1.304688 3.199219-3.992188 3.199219-2.410156 0-6.003906-1.738282-6.003906-7.863282h-.511719v8.179688zm15.562424-19.476562v.511718c1.859376 0 2.804688.316406 2.804688 2.175782v12.085937c0 4.347656 2.648438 5.175781 6.046875 5.175781 3.671875 0 5.136719-1.5 6.203125-3.039062v2.566406h7.226562v-.511719c-2.25 0-3.277343-.359375-3.277343-3.003906v-15.960937h-6.753907v.511718c2.132813 0 2.804688.316406 2.804688 2.136719v13.035156c-.753906 1.660157-2.214844 3.238281-4.703125 3.238281-2.921875 0-3.59375-1.816406-3.59375-4.226562v-14.695312zm24.25682 13.789062c0 3.554688 2.367188 6.160156 6.476563 6.160156 2.332031 0 5.097656-1.066406 6.597656-3.832031h.160156c0 2.6875 1.105469 3.832031 4.382813 3.832031 3.554687 0 4.503906-2.09375 4.503906-4.304687h-.511719c0 1.304687-.671875 3.277343-2.53125 3.277343-1.539062 0-1.894531-1.222656-1.894531-3.277343v-9.601563c0-3.832031-3.320313-6.515625-8.691406-6.515625-3.632813 0-7.78125 2.171875-7.78125 7.347657h.511719c0-3.003907 2.292968-5.375 6.519531-5.375 4.148437 0 5.492187 2.371093 5.492187 4.542968v2.332032c-1.027344-.710938-2.492187-1.265626-5.019531-1.265626-2.6875 0-8.214844 1.1875-8.214844 6.679688zm8.292969 3.988281c-2.882812 0-4.34375-2.015625-4.34375-5.214843 0-2.25 1.222656-4.699219 4.265625-4.898438 1.660156-.117188 3.753906.394531 5.019531 1.421875v3.636719c0 3.355468-2.371094 5.054687-4.941406 5.054687zm15.009447-26.585937c2.054687 0 3.320312.234375 3.320312 1.816406v23.820312c0 1.859376-.910156 2.136719-2.804687 2.136719v.511719h9.480469v-.511719c-1.855469 0-2.726563-.277343-2.726563-2.136719v-27.574218l-7.269531 1.421875zm21.450732-.515625v.515625c2.132812 0 2.648438.472656 3.554688 2.328125l12.523437 25.957031h.832031l5.132813-14.617188 7.074219 14.617188h.828124l9.046876-25.917969c.671874-1.894531 1.421874-2.367187 3.675781-2.367187v-.515625h-6.480469v.515625c2.488281 0 2.882812.628906 2.292969 2.328125l-7.191407 20.503906-7.230468-14.972656 1.9375-5.492188c.671875-1.894531 1.421875-2.367187 3.632812-2.367187v-.515625h-16.632812v.515625c2.136718 0 2.6875.472656 3.558594 2.328125l5.175781 10.667969-3.4375 9.835937-10.074219-20.820313c-.832031-1.777343.078125-2.050781 2.722656-2.050781v-.476562zm23.742188 7.742187-2.488282-5.214844c-.789062-1.578124-.117187-1.972656 1.9375-2.011718 2.488282 0 2.882813.628906 2.289063 2.328125zm30.532638 21.53125c6.242188 0 8.457031-4.542968 8.574219-9.125h-.511719c0 2.015625-1.066406 6.953125-6.519531 6.953125-5.175781 0-7.625-3.988281-7.625-9.519531 0-.355469 0-.710938.039062-1.066406h14.105469c0-4.1875-2.804687-7.664063-7.585937-7.664063-6.597656 0-10.507813 5.09375-10.507813 10.308594 0 5.847656 3.394531 10.113281 10.03125 10.113281zm-5.964843-13.273437c.515624-3.832031 2.886718-6.359375 6.046874-6.359375 4.148438 0 4.660157 3.476562 4.660157 6.359375zm27.13761 13.273437c6.242188 0 8.457031-4.542968 8.574219-9.125h-.511719c0 2.015625-1.066406 6.953125-6.519531 6.953125-5.175781 0-7.625-3.988281-7.625-9.519531 0-.355469 0-.710938.039062-1.066406h14.105469c0-4.1875-2.804687-7.664063-7.585937-7.664063-6.597656 0-10.507813 5.09375-10.507813 10.308594 0 5.847656 3.394531 10.113281 10.03125 10.113281zm-5.964843-13.273437c.515624-3.832031 2.886718-6.359375 6.046874-6.359375 4.148438 0 4.660157 3.476562 4.660157 6.359375zm16.707923-15.484375c2.054687 0 3.320312.628906 3.320312 2.210937v23.425781c0 1.859376-1.304687 2.175782-2.765625 2.175782v.472656h9.441407v-.472656c-1.460938 0-2.726563-.316406-2.726563-2.175782v-7.503906c.632813-.710937 1.265625-1.382812 1.898437-2.09375l4.382813 7.78125c.316406.554688.632813 1.144532.949219 1.699219 1.105468 1.976563 2.488281 2.765625 4.664062 2.765625h2.566406v-.472656c-1.34375 0-2.054687-.277344-2.921874-1.660156-1.820313-3.238282-4.980469-8.808594-4.980469-8.808594-.472657.195312-.949219.273437-1.382813.273437-1.34375 0-2.488281-.789062-2.921875-1.933593.394531-.476563.789063-.910157 1.222657-1.34375 1.066406-1.1875 2.132812-2.449219 3.320312-3.554688 1.066406-1.027344 1.816406-1.464844 3.316406-1.464844v-.511718h-5.648437v.511718c1.066406 0 2.527343.4375 1.144531 2.054688l-5.609375 6.164062v-19.476562l-7.269531 1.421875zm0 0" fill="#fff"/><g fill="#e7bb7d"><path d="m170.114718 57.72041c-.542969-.21875-1.136719 0-1.355469.542969-6.183594 13.128906-12.152344 22.785156-17.796875 28.699218-4.773438 4.992188-9.058594 7.054688-12.476563 6.023438-3.09375-.976562-5.480469-4.613281-6.675781-10.253906-1.355469-6.078125-1.300781-13.890625.109375-22.570313 2.007813-12.371093 7.8125-29.894531 14.59375-38.035156 2.007813-2.386719 3.746094-3.527344 4.777344-2.984375 2.546875 1.25 3.578125 11.613281-2.007813 36.730469-.164062.542969.214844 1.085937.757813 1.25.597656.109375 1.140625-.269531 1.25-.8125 3.632812-16.222657 6.726562-36.191407.921875-39.066407-1.410156-.703124-3.800782-.652343-7.269532 3.527344-4.34375 5.207032-7.652343 12.96875-9.660156 18.609375-2.441406 6.671875-4.394531 14.160157-5.425781 20.453125-3.039063 18.613282.21875 32.71875 8.03125 35.160156.757813.214844 1.574219.324219 2.386719.324219 8.574218 0 19.476562-12.914062 30.328125-36.1875.273437-.542969.054687-1.140625-.488281-1.410156zm0 0"/><path d="m190.623456 60.107129c-.542969-.21875-1.140626 0-1.410157.488281-4.070312 8.410156-7.21875 11.066406-8.683593 10.796875-.542969-.109375-2.546876-1.25-3.035157-10.6875 0-.433594-.328125-.816406-.707031-.976562-.433594-.109376-.867188.054687-1.140625.378906-.324219.433594-.703125.921875-1.136719 1.519531-1.304687 1.789063-3.09375 4.230469-5.15625 6.457031-.324218.378906-.597656.59375-.757812.703125-.328125-1.898437 1.625-9.167969 4.882812-11.5.867188-.652343 2.113282-1.140625 3.796875.867188.378907.433593 1.03125.488281 1.464844.109375.488281-.382813.542969-1.03125.164063-1.464844-2.0625-2.390625-4.015626-2.335938-5.316407-1.902344-4.179687 1.46875-7 9.441406-7.054687 13.132813-.054688 1.574219.378906 2.496093 1.246094 2.875 1.304687.542969 2.660156-.921875 3.148437-1.410157 1.84375-2.007812 3.417969-4.125 4.71875-5.859374.597656 6.183593 2.0625 9.277343 4.503906 9.820312.21875 0 .378907.054688.597657.054688 3.742187 0 7.648437-6.402344 10.363281-11.992188.214843-.488281 0-1.140625-.488281-1.410156zm-16.277344-8.519532c.21875.164063.433594.273438.652344.273438.324218 0 .648437-.164062.8125-.433594l3.527343-4.34375c.378907-.433594.269531-1.082031-.164062-1.464844-.433594-.378906-1.140625-.269531-1.464844.164063l-3.527344 4.339844c-.324219.488281-.269531 1.140625.164063 1.464843zm0 0"/><path d="m211.239806 25.056347c-.378907-.324218-.867188-.433593-1.355469-.324218-2.335938.757812-6.511719 12.097656-10.527344 30.761718-.109375.328126-.269531.597657-.433594.921876-.273437-2.113282-1.683593-2.710938-2.171874-2.875-2.332032-.703126-6.019532 1.410156-8.570313 6.835937-1.953125 4.070313-2.332031 9.386719.109375 10.796875 1.191406.707031 3.253906.597656 6.238281-3.742188 1.300781-1.84375 2.441407-3.636718 3.527344-5.371093-.597656 3.09375-1.195313 6.347656-1.738281 9.765625-1.03125 6.078125-1.789063 11.175781-2.222656 14.867187-.867188 7.214844-.433594 8.191407.648437 8.515625.109375.054688.273437.054688.382813.054688.976562 0 1.625-1.246094 1.953124-2.0625.269532-.488282.054688-1.136719-.488281-1.355469-.273437-.160156-.597656-.160156-.871093-.054687.109374-2.332032.652343-7.648438 2.660156-19.585938.976562-5.96875 2.007812-11.285156 2.984375-15.949219 4.070312-7.707031 6.128906-14.214843 7.8125-19.371093.21875-.652344.433593-1.246094.597656-1.789063 2.875-8.628906 1.789063-9.660156 1.464844-10.039063zm-18.449219 41.179688c-2.058594 2.984375-3.199219 3.257812-3.472656 3.148438-.8125-.488282-1.082032-4.230469.761718-8.136719s4.339844-5.753907 5.695313-5.753907c.164063 0 .273437 0 .382813.054688.867187.21875.703124 1.792969.648437 2.226562-.054687.488282.21875.976563.707031 1.136719-1.355468 2.335938-2.929687 4.777344-4.722656 7.324219zm15.03125-31.792969c-.21875.542969-.433594 1.140625-.597656 1.789063-.976563 2.933594-2.0625 6.242187-3.527344 9.984375 2.28125-9.003907 4.339844-14.648438 5.644531-17.46875-.21875 1.300781-.707031 3.144531-1.519531 5.695312zm13.075114 23.601563c-.488281-.324219-1.085938-.164063-1.410156.324218-3.636719 5.859376-9.714844 11.394532-11.558594 10.636719-.214844-.109375-1.953125-1.140625.433594-10.308593.109375-.597657-.214844-1.140626-.757813-1.304688-.597656-.105469-1.140625.21875-1.304687.761719-1.953125 7.648437-1.679688 11.71875.761718 12.75.378907.164062.757813.214843 1.140626.214843 4.066406 0 10.308593-7.269531 13.074218-11.664062.269532-.488281.109375-1.136719-.378906-1.410156zm-12.804688-4.394532c2.765626.164063 2.710938-3.308593.488282-2.550781-1.140625.328125-2.605469 2.441407-.488282 2.550781zm0 0"/><path d="m251.658255 58.208691c-.378906-.433594-1.03125-.488281-1.464844-.109375-4.015624 3.472657-7.648437 6.726563-11.066406 9.820313.269532-3.417969-.054687-6.183594-1.195312-7.757813-.921875-1.25-2.222656-1.738281-3.851563-1.519531-2.0625.324219-3.691406 1.03125-4.882812 1.679688 0-.050782.054687-.105469.054687-.160157.269532-.652343.648438-1.410156 1.03125-2.332031 2.386719-5.480469 2.929688-8.898438 1.734375-10.417969-.542969-.652343-1.355469-.921875-2.332031-.761719-3.417969.652344-7.8125 6.621094-9.332031 11.394532-.164063.542968.109375 1.140625.703125 1.300781.542968.164063 1.085937-.105469 1.304687-.703125 1.519531-4.9375 5.371094-9.0625 7.378907-9.820312.378906-.164063.59375-.164063.59375-.109376 0 0 1.03125 1.25-1.953126 8.300782-.433593.867187-.757812 1.628906-1.027343 2.28125-1.304688 2.980468-1.519531 3.523437-.816407 4.121094.707032.597656 1.410157.109374 2.171876-.378907 1.085937-.652343 2.984374-1.953125 5.695312-2.332031.816406-.109375 1.355469.105469 1.84375.703125 1.03125 1.410156 1.140625 4.613281.542969 8.683594-6.78125 6.402343-12.53125 12.3125-18.175781 18.878906-7.648438 8.734375-11.011719 15.410156-9.492188 18.773437.542969 1.300782 1.734375 2.007813 3.308594 2.007813h.109375c5.152343 0 13.886719-6.675781 19.257812-17.6875 3.257813-6.621094 5.914063-14.488281 6.945313-20.945313 3.851562-3.578124 8.085937-7.324218 12.804687-11.390624.433594-.382813.488281-1.085938.109375-1.519532zm-21.703125 32.988282c-5.371093 10.847656-13.5625 16.546874-17.46875 16.492187-1.140625 0-1.410156-.597656-1.464843-.757813-.816407-1.902343 1.085937-7.328124 9.167968-16.605468 5.046875-5.804688 10.09375-11.121094 15.953125-16.710938-1.195312 5.371094-3.367187 11.722656-6.1875 17.582032zm0 0"/></g></svg>