<?xml version="1.0" standalone="no"?>
<!DOCTYPE svg PUBLIC "-//W3C//DTD SVG 20010904//EN"
 "http://www.w3.org/TR/2001/REC-SVG-20010904/DTD/svg10.dtd">
<svg version="1.0" xmlns="http://www.w3.org/2000/svg"
 width="800.000000pt" height="800.000000pt" viewBox="0 0 800.000000 800.000000"
 preserveAspectRatio="xMidYMid meet">
<metadata>
Created by potrace 1.11, written by Peter Selinger 2001-2013
</metadata>
<g transform="translate(0.000000,800.000000) scale(0.100000,-0.100000)"
fill="#000000" stroke="none">
<path d="M5610 6145 c0 -41 -18 -81 -50 -110 -26 -23 -50 -67 -50 -90 0 -32
32 -84 53 -88 13 -3 7 -5 -13 -5 -93 0 -367 -24 -432 -37 -141 -30 -273 -81
-367 -143 -130 -86 -300 -282 -285 -328 4 -14 3 -15 -4 -6 -7 11 -10 11 -15
-2 -3 -8 -2 -16 3 -18 4 -2 2 -16 -5 -33 l-14 -30 5 30 c4 29 4 29 -8 6 -10
-19 -9 -25 4 -35 11 -8 13 -17 7 -35 -8 -20 -12 -21 -25 -10 -8 7 -14 8 -12 3
6 -21 -44 -102 -70 -112 -21 -9 -138 -20 -219 -22 -10 0 -13 -30 -12 -117 1
-142 7 -165 39 -173 18 -4 26 -14 28 -33 3 -27 -4 -31 -45 -30 -14 1 -15 -46
-4 -156 6 -62 7 -64 41 -75 l35 -11 -3 -235 c-2 -129 -6 -243 -8 -252 -5 -17
-25 -18 -247 -18 -133 0 -246 -4 -252 -8 -6 -4 -11 -101 -12 -247 -2 -132 -6
-262 -10 -290 l-8 -50 -74 -3 c-70 -3 -73 -4 -67 -25 4 -12 13 -51 20 -87 24
-115 28 -120 88 -120 l53 0 188 -183 c103 -100 187 -188 187 -194 0 -10 -412
-13 -2025 -13 l-2025 0 0 -70 c0 -61 2 -69 17 -63 12 5 14 3 8 -7 -5 -8 -4
-11 1 -7 5 3 84 8 174 11 104 3 157 1 142 -4 -12 -5 -87 -12 -165 -16 -78 -3
-150 -7 -159 -7 -12 -1 -18 -9 -18 -24 0 -22 3 -23 93 -25 56 -1 72 -3 42 -5
-86 -7 -79 -25 8 -21 42 3 72 1 66 -3 -6 -4 -9 -11 -6 -15 3 -5 -8 -9 -23 -9
-15 0 -27 2 -25 5 2 3 -13 7 -33 7 -20 1 -56 5 -80 8 l-42 7 0 -91 0 -92 48 3
c30 2 46 7 45 15 -3 13 34 22 112 25 46 3 50 5 47 25 -2 15 2 23 11 23 24 0
14 44 -13 57 -22 11 -17 12 37 8 34 -2 65 0 68 5 4 6 -13 10 -39 10 -25 0 -48
5 -51 10 -11 18 87 12 108 -8 17 -15 47 -17 251 -21 127 -2 268 -3 314 -3 50
0 80 -3 76 -9 -3 -6 5 -7 23 -3 15 4 25 3 21 -1 -11 -12 16 -33 48 -38 16 -2
-19 -5 -78 -6 -60 0 -108 2 -108 7 0 4 -18 6 -40 4 -22 -2 -40 -8 -40 -13 0
-4 -8 -6 -17 -3 -14 5 -15 4 -5 -4 18 -13 309 -7 325 7 15 12 186 7 232 -7 25
-8 13 -10 -70 -17 -71 -5 -100 -4 -103 4 -5 15 -23 14 -36 -3 -8 -10 -42 -16
-111 -20 -106 -6 -155 -14 -155 -25 0 -7 29 -8 307 -14 90 -2 166 -6 169 -10
4 -4 -6 -7 -23 -7 -16 0 -54 -7 -84 -17 -30 -9 -66 -15 -81 -14 -15 1 -42 -4
-60 -13 -18 -8 -55 -18 -83 -22 -69 -9 -104 -25 -44 -19 40 4 48 2 52 -15 4
-16 0 -20 -21 -21 -25 -2 -25 -2 -4 -6 15 -3 22 -10 18 -18 -12 -34 113 -44
188 -16 23 9 26 14 17 25 -14 16 -4 20 70 31 42 5 47 9 53 35 5 29 7 30 65 30
33 0 63 5 66 10 9 15 28 12 22 -3 -4 -10 9 -13 52 -12 31 1 61 4 66 7 6 3 59
0 118 -8 128 -17 281 -25 512 -26 94 -1 159 -5 145 -9 -14 -4 -19 -7 -13 -8
15 -1 47 -60 38 -69 -7 -8 -365 -4 -430 4 -21 3 -42 10 -46 15 -4 7 -9 8 -13
1 -3 -5 6 -18 19 -28 30 -23 32 -58 5 -77 -21 -14 -20 -15 7 -22 15 -4 66 -6
113 -5 47 1 167 2 267 3 101 1 183 5 183 9 0 3 12 11 28 17 l27 11 -27 -5
c-32 -6 -43 7 -28 35 8 16 17 19 33 14 34 -10 42 -10 40 1 -1 6 29 9 78 7 62
-3 79 -1 77 10 -2 7 -8 15 -15 18 -23 10 14 43 49 43 118 3 186 -11 131 -27
-10 -2 0 -5 22 -4 81 0 110 -3 125 -12 15 -10 14 -11 -44 -52 -31 -22 48 -26
438 -23 405 3 521 8 511 25 -2 4 7 5 20 2 29 -5 33 -19 8 -25 -17 -4 -17 -5 0
-6 14 -1 17 -11 17 -68 0 -38 -4 -73 -8 -79 -4 -6 -53 -14 -112 -17 -58 -4
-157 -11 -220 -17 -63 -5 -149 -12 -190 -16 -80 -6 -107 -14 -49 -14 19 0 39
-4 45 -9 5 -6 26 -6 54 0 25 5 97 12 160 15 63 2 159 9 213 15 55 6 102 8 105
5 13 -14 -19 -27 -89 -36 -108 -13 -233 -29 -320 -40 -42 -6 -163 -17 -270
-24 -107 -8 -209 -20 -227 -27 -19 -6 -55 -9 -80 -6 -26 2 -65 -1 -87 -8 -36
-11 -28 -12 80 -9 80 3 113 1 100 -5 -11 -5 -45 -11 -75 -12 l-55 -2 65 -7
c36 -4 112 -9 170 -10 75 -1 96 -4 75 -10 -45 -12 -266 -19 -259 -8 8 13 -218
-1 -231 -14 -7 -7 0 -9 23 -5 17 4 32 3 32 -2 0 -16 -320 -38 -329 -23 -7 11
-84 7 -326 -17 -55 -6 -126 -11 -157 -11 -40 0 -58 -4 -58 -13 0 -7 -11 -14
-25 -15 -14 -1 -25 3 -25 8 0 5 -30 8 -72 5 -113 -6 -424 -34 -513 -47 -44 -6
-133 -12 -198 -13 -64 -1 -120 -5 -124 -8 -11 -12 -71 -7 -76 6 -3 9 -9 7 -24
-6 -14 -12 -37 -17 -84 -17 -35 0 -93 -5 -129 -10 -80 -12 -213 -2 -206 15 2
6 -1 12 -7 12 -7 1 -39 3 -72 6 -37 3 -51 2 -35 -3 14 -4 39 -9 55 -11 25 -2
22 -3 -15 -9 l-45 -7 50 -2 c90 -4 96 -17 10 -24 -44 -4 -129 -12 -190 -18
-135 -14 -186 -18 -247 -18 -46 -1 -48 -2 -48 -29 l0 -28 97 8 c53 4 99 11
102 16 3 4 42 8 86 10 44 1 148 6 230 12 83 5 229 14 325 20 96 6 193 13 216
15 46 5 455 31 648 41 92 5 126 4 126 -4 0 -8 -18 -12 -47 -12 -27 0 -113 -5
-193 -10 -80 -5 -253 -17 -385 -25 -363 -23 -364 -23 -460 -34 -49 -5 -97 -10
-105 -9 -33 1 -381 -23 -467 -32 -50 -6 -110 -10 -132 -10 l-41 0 0 -700 0
-700 4000 0 4000 0 0 1170 c0 1103 -1 1170 -17 1180 -17 9 -17 11 -1 20 16 10
17 112 18 1645 0 1022 -3 1635 -9 1635 -5 0 -22 -5 -38 -11 -15 -6 -66 -21
-113 -34 -47 -13 -143 -44 -215 -68 -182 -64 -462 -147 -494 -147 -15 0 -35
-6 -46 -14 -48 -32 -442 -136 -519 -136 -19 0 -38 -4 -41 -10 -3 -5 -19 -10
-36 -10 -24 0 -29 4 -29 23 0 27 -63 161 -80 172 -13 8 -130 -14 -130 -25 0
-11 62 -123 87 -156 13 -17 23 -35 23 -40 0 -6 -46 -20 -102 -33 -57 -12 -148
-33 -203 -46 -130 -31 -184 -39 -166 -27 22 16 5 72 -22 72 -47 0 -49 8 -58
196 -9 188 -24 288 -58 394 -12 35 -21 65 -21 67 0 7 27 2 52 -11 20 -11 28
-11 32 -3 2 7 5 4 5 -7 1 -16 3 -17 18 -5 9 8 14 9 11 4 -4 -6 22 -21 58 -35
35 -13 64 -28 64 -32 0 -4 11 -8 25 -8 14 0 25 4 25 9 0 5 15 4 35 -2 19 -6
35 -14 35 -19 0 -4 18 -5 39 -2 27 4 46 2 60 -8 14 -10 37 -14 69 -10 31 2 61
-2 86 -12 22 -9 41 -14 43 -12 6 5 -135 59 -222 84 -93 28 -404 85 -427 79
-10 -3 -18 -1 -18 4 0 5 -4 9 -9 9 -5 0 -22 5 -38 12 -15 6 -36 10 -45 9 -19
-2 -38 28 -42 67 -3 33 13 84 24 77 4 -3 10 2 14 10 3 8 12 15 20 15 8 0 18 6
22 13 4 6 4 9 0 5 -8 -7 -46 21 -46 35 0 4 4 6 9 3 4 -3 8 17 7 44 -1 59 -26
72 -26 15z m67 -816 c6 -6 9 -18 6 -25 -3 -8 0 -14 7 -14 6 0 8 -6 4 -12 -6
-10 -4 -10 7 0 7 6 19 12 27 12 33 0 -16 -27 -61 -34 -26 -4 -45 -11 -43 -15
11 -17 -12 -28 -66 -34 -55 -5 -58 -4 -58 16 1 12 9 33 20 45 18 22 21 23 49
9 33 -16 64 -6 44 14 -9 9 -7 16 10 30 26 21 39 23 54 8z m-187 -46 c18 4 18
3 2 -29 -18 -36 -36 -43 -46 -19 -3 8 -12 15 -19 15 -9 0 -14 10 -14 25 0 30
13 33 22 5 4 -11 11 -18 16 -14 5 3 7 10 4 15 -4 5 -3 15 2 22 5 9 9 7 11 -6
3 -13 10 -17 22 -14z m847 21 c-3 -3 -12 -4 -19 -1 -8 3 -5 6 6 6 11 1 17 -2
13 -5z m33 -15 c0 -5 -4 -9 -10 -9 -5 0 -10 7 -10 16 0 8 5 12 10 9 6 -3 10
-10 10 -16z m-1893 -31 c-3 -8 -6 -5 -6 6 -1 11 2 17 5 13 3 -3 4 -12 1 -19z
m323 -33 c-7 -9 -15 -13 -17 -11 -6 6 20 36 26 30 2 -2 -2 -10 -9 -19z m625 5
c3 -5 -1 -10 -10 -10 -9 0 -13 5 -10 10 3 6 8 10 10 10 2 0 7 -4 10 -10z
m-925 -15 c0 -8 -7 -15 -15 -15 -16 0 -20 12 -8 23 11 12 23 8 23 -8z m1937 0
c-4 -13 -57 -19 -57 -7 0 14 6 17 34 17 14 0 25 -4 23 -10z m-1967 -32 c0 -7
-4 -13 -10 -13 -5 0 -10 12 -10 28 0 21 2 24 10 12 5 -8 10 -21 10 -27z m2500
6 c0 -5 -4 -9 -10 -9 -5 0 -10 7 -10 16 0 8 5 12 10 9 6 -3 10 -10 10 -16z
m-2549 -12 c-13 -13 -26 -3 -16 12 3 6 11 8 17 5 6 -4 6 -10 -1 -17z m1382
-60 l28 -12 -30 -18 c-30 -17 -31 -17 -32 0 0 10 -3 13 -6 6 -8 -22 -107 -17
-127 6 -13 15 -14 20 -4 24 25 10 143 6 171 -6z m-369 -28 l29 -18 -97 -3
c-59 -2 -96 1 -96 7 0 6 -3 6 -8 -1 -4 -5 -16 -10 -27 -11 -11 0 -115 -4 -231
-8 -207 -8 -271 -4 -259 15 9 15 -59 12 -90 -4 l-28 -15 39 -4 c21 -2 5 -4
-36 -4 -41 0 -63 2 -47 4 15 2 27 9 27 14 0 15 -50 10 -56 -6 -7 -18 -25 -20
-21 -2 1 7 -11 13 -30 15 -24 2 -33 -1 -33 -11 0 -11 -7 -13 -22 -9 -14 3 -19
2 -14 -6 5 -9 -16 -12 -78 -12 -56 0 -86 4 -86 11 0 6 -7 9 -15 6 -8 -4 -17
-2 -20 3 -11 17 -25 11 -18 -7 6 -16 5 -16 -10 -4 -15 12 -20 11 -35 -3 -26
-22 -39 -20 -44 8 l-5 24 111 4 c104 3 143 -5 113 -24 -7 -4 7 -7 30 -5 24 1
43 5 43 9 0 4 10 9 23 11 12 3 5 4 -15 4 -21 -1 -34 -5 -31 -11 3 -5 1 -6 -5
-2 -7 4 -12 11 -12 15 0 4 156 13 348 21 191 7 412 16 492 19 159 7 172 6 214
-20z m396 -19 c0 -5 -9 -10 -21 -10 -11 0 -17 5 -14 10 3 6 13 10 21 10 8 0
14 -4 14 -10z m-165 -30 c6 -10 -45 -40 -70 -40 -15 0 -21 31 -8 43 10 11 71
8 78 -3z m-236 -11 c17 -6 31 -14 31 -19 0 -8 -186 -50 -223 -50 -25 0 -146
51 -147 62 0 4 57 9 128 11 70 1 139 4 153 5 14 1 40 -3 58 -9z m139 -11 c-3
-7 -15 -15 -27 -16 -14 -2 -21 0 -17 6 3 6 0 13 -6 15 -7 3 2 6 20 6 23 1 32
-3 30 -11z m-528 -4 c-67 -11 -178 -38 -202 -50 -32 -16 -38 -17 -38 -5 0 5 8
12 18 15 9 3 -22 3 -70 1 -58 -3 -88 0 -88 7 0 7 -19 8 -55 4 -33 -3 -55 -2
-55 4 0 6 32 10 73 11 39 1 110 4 157 8 92 7 301 11 260 5z m-820 -41 c0 -17
-20 -17 -21 0 -1 6 -5 1 -9 -13 -7 -22 -8 -22 -9 -4 -1 24 4 31 24 31 8 0 15
-6 15 -14z m147 10 c-15 -2 -25 -9 -22 -14 4 -5 2 -9 -3 -9 -6 0 -12 7 -16 15
-4 12 3 15 32 14 30 -2 32 -3 9 -6z m134 -3 c-18 -4 -37 -14 -42 -22 -7 -10
-9 -9 -9 4 0 9 -8 19 -17 21 -10 3 9 5 42 5 51 0 55 -1 26 -8z m-247 -21 c-6
-11 -24 -2 -24 11 0 5 7 7 15 4 8 -4 12 -10 9 -15z m263 -9 c1 -11 -2 -20 -7
-20 -5 0 -14 9 -20 20 -9 17 -8 20 8 20 11 0 18 -8 19 -20z m235 8 c-9 -9 -15
-9 -24 0 -9 9 -7 12 12 12 19 0 21 -3 12 -12z m-45 -4 c-3 -3 -12 -4 -19 -1
-8 3 -5 6 6 6 11 1 17 -2 13 -5z m-427 -14 c0 -5 -5 -10 -11 -10 -5 0 -7 5 -4
10 3 6 8 10 11 10 2 0 4 -4 4 -10z m508 -7 c-10 -2 -28 -2 -40 0 -13 2 -5 4
17 4 22 1 32 -1 23 -4z m42 -3 c0 -5 -2 -10 -4 -10 -3 0 -8 5 -11 10 -3 6 -1
10 4 10 6 0 11 -4 11 -10z m-263 -6 c-3 -3 -12 -4 -19 -1 -8 3 -5 6 6 6 11 1
17 -2 13 -5z m50 0 c-3 -3 -12 -4 -19 -1 -8 3 -5 6 6 6 11 1 17 -2 13 -5z
m610 -10 c-3 -3 -12 -4 -19 -1 -8 3 -5 6 6 6 11 1 17 -2 13 -5z m-897 -28 c19
-3 39 -5 44 -5 5 -1 -1 -10 -14 -21 -19 -17 -20 -20 -6 -20 15 0 15 -2 4 -14
-8 -8 -23 -15 -33 -17 -26 -5 -31 -29 -6 -29 35 0 32 -17 -7 -33 -44 -18 -56
-13 -49 19 5 28 -3 36 -23 23 -13 -8 -13 -10 -1 -18 12 -8 12 -12 2 -25 -8 -9
-17 -16 -22 -16 -10 0 -12 44 -3 78 7 24 29 30 38 10 3 -7 5 8 3 34 -2 43 0
47 18 42 11 -2 36 -6 55 -8z m510 5 c0 -5 -7 -12 -16 -15 -26 -10 -132 -7
-139 4 -3 6 -11 10 -17 10 -7 0 -6 -6 2 -15 11 -13 9 -15 -13 -13 -14 1 -23 6
-21 10 3 4 -37 7 -88 7 -126 -2 -134 3 -18 11 155 10 310 11 310 1z m-550
-326 c0 -14 -9 -29 -21 -35 -19 -10 -20 -10 -10 9 6 11 11 29 11 41 0 12 5 18
10 15 6 -3 10 -17 10 -30z m43 -222 c-6 -238 -14 -363 -25 -363 -10 0 -1 485
9 503 14 24 19 -18 16 -140z m232 69 c45 -7 50 -10 50 -32 0 -20 -5 -25 -27
-25 -35 1 -25 -15 10 -16 l27 -1 -25 -7 c-21 -6 -22 -8 -7 -14 11 -4 17 -17
17 -37 l0 -32 -79 4 c-44 2 -77 0 -74 -4 2 -5 38 -8 79 -8 43 0 74 -4 74 -10
0 -5 -10 -11 -22 -11 l-23 -2 23 -4 c37 -7 25 -23 -20 -25 l-43 -1 43 -4 c47
-5 58 -22 15 -24 l-28 -2 26 -4 c23 -4 26 -9 27 -49 l2 -44 -52 -2 -53 -2 53
-3 c57 -4 72 -22 20 -25 l-33 -1 33 -4 c56 -7 35 -23 -32 -23 -35 0 -78 -3
-95 -6 l-31 -7 2 74 3 74 45 6 45 6 -47 1 c-54 2 -66 21 -15 23 30 2 30 2 5 6
-31 5 -38 22 -10 24 16 1 16 2 -1 6 -12 3 -17 13 -15 36 1 18 7 35 13 39 7 5
7 8 -1 8 -6 0 -11 16 -12 35 -1 34 0 35 36 36 34 2 34 2 7 6 -42 6 -56 23 -19
24 l29 1 -28 10 c-38 14 -24 29 21 22 20 -3 60 -8 87 -12z m196 -19 c6 -66 4
-73 -23 -73 -30 0 -39 19 -10 21 15 1 15 2 1 6 -10 2 -16 14 -16 28 0 20 5 25
23 25 13 0 24 -3 25 -7z m191 -28 c0 -5 -5 -11 -11 -13 -6 -2 -11 4 -11 13 0
9 5 15 11 13 6 -2 11 -8 11 -13z m116 -3 c13 -4 23 -11 23 -17 0 -5 -10 -13
-23 -17 -23 -6 -23 -6 2 -7 21 -1 25 -6 25 -31 0 -29 -2 -30 -42 -30 -53 0
-57 19 -5 22 l37 1 -37 4 c-35 4 -55 23 -25 23 7 0 8 3 2 8 -5 4 -11 17 -13
30 -3 23 10 27 56 14z m280 -174 c-3 -146 -5 -173 -18 -173 -11 0 -15 11 -14
48 1 26 3 103 3 172 1 103 4 125 17 125 12 0 14 -25 12 -172z m972 162 c0 -5
-9 -10 -21 -10 -11 0 -17 5 -14 10 3 6 13 10 21 10 8 0 14 -4 14 -10z m-170
-10 c-37 -12 -140 -12 -140 0 0 6 34 10 83 9 56 -1 74 -4 57 -9z m-1194 -20
c0 -12 -7 -20 -17 -20 -12 0 -16 6 -12 20 3 11 11 20 17 20 6 0 12 -9 12 -20z
m704 10 c0 -5 -21 -11 -47 -12 l-48 -2 48 -3 c63 -5 60 -23 -5 -25 l-53 -2 53
-3 c44 -3 53 -7 50 -21 -2 -13 -16 -18 -56 -20 l-52 -3 1 50 2 51 54 0 c29 0
53 -4 53 -10z m120 0 c0 -5 -11 -10 -25 -10 -14 0 -25 5 -25 10 0 6 11 10 25
10 14 0 25 -4 25 -10z m130 0 c0 -5 -4 -10 -10 -10 -5 0 -10 5 -10 10 0 6 5
10 10 10 6 0 10 -4 10 -10z m260 -7 c0 -10 -107 -43 -136 -43 -12 0 -21 7 -21
15 0 14 22 21 97 28 19 2 41 5 48 5 6 1 12 -1 12 -5z m150 0 c0 -5 -4 -15 -10
-23 -11 -18 -25 -7 -17 15 6 15 27 21 27 8z m-1555 -23 c4 -6 -6 -10 -24 -10
-16 0 -33 5 -36 10 -4 6 6 10 24 10 16 0 33 -4 36 -10z m1015 0 c0 -5 -11 -10
-25 -10 -14 0 -25 5 -25 10 0 6 11 10 25 10 14 0 25 -4 25 -10z m395 -10 c-3
-5 -12 -10 -20 -10 -7 0 -15 -5 -17 -11 -5 -15 -128 -25 -128 -10 0 7 19 11
49 11 27 0 62 7 77 15 34 17 48 19 39 5z m-1220 -10 c3 -5 2 -10 -3 -10 -5 0
-7 -11 -4 -25 2 -15 0 -25 -7 -25 -6 0 -11 16 -11 35 0 34 12 46 25 25z m-185
-10 c0 -5 -13 -10 -29 -10 -17 0 -33 5 -36 10 -4 6 8 10 29 10 20 0 36 -4 36
-10z m1007 -20 c0 -26 -4 -30 -26 -30 -25 1 -25 1 -7 15 17 13 17 15 3 15 -10
0 -14 5 -11 15 4 8 14 15 23 15 13 0 18 -8 18 -30z m543 20 c0 -5 -9 -10 -21
-10 -11 0 -17 5 -14 10 3 6 13 10 21 10 8 0 14 -4 14 -10z m-870 -14 c0 -3 -4
-8 -10 -11 -5 -3 -10 -1 -10 4 0 6 5 11 10 11 6 0 10 -2 10 -4z m460 -6 c0 -5
-4 -10 -10 -10 -5 0 -10 5 -10 10 0 6 5 10 10 10 6 0 10 -4 10 -10z m260 0 c0
-9 -23 -14 -112 -24 -29 -3 -48 -2 -48 4 0 6 17 10 38 11 29 0 106 12 120 18
1 0 2 -3 2 -9z m-1400 -10 c0 -5 -13 -10 -29 -10 -17 0 -33 5 -36 10 -4 6 8
10 29 10 20 0 36 -4 36 -10z m327 -12 c-1 -18 -10 -24 -37 -29 l-35 -6 38 -2
c28 -1 36 -4 31 -13 -5 -7 -7 -27 -5 -45 2 -32 2 -33 -38 -33 -55 0 -64 20 -9
22 l43 1 -37 4 c-38 4 -53 22 -20 24 16 1 16 2 0 6 -12 3 -18 14 -18 34 0 27
3 29 38 31 l37 1 -37 4 c-53 6 -47 23 7 23 40 0 45 -2 42 -22z m1223 12 c0 -5
-9 -10 -21 -10 -11 0 -17 5 -14 10 3 6 13 10 21 10 8 0 14 -4 14 -10z m-664
-45 c1 -34 1 -35 -40 -37 l-41 -1 43 -4 c23 -2 42 -7 42 -12 0 -18 -28 -31
-68 -31 -42 0 -44 1 -40 25 3 14 1 25 -6 25 -6 0 -5 4 3 9 8 5 9 11 3 15 -6 3
-8 15 -5 26 4 17 14 20 57 20 l51 0 1 -35z m-900 10 c-11 -8 -14 -15 -8 -15 7
0 12 -13 12 -30 0 -27 -3 -30 -30 -30 -35 0 -41 19 -7 21 l22 2 -22 4 c-24 5
-32 23 -10 23 7 0 8 3 2 8 -24 17 -14 32 23 32 35 -1 36 -2 18 -15z m1414 6
c0 -10 -138 -20 -155 -12 -5 3 4 9 20 12 47 10 135 10 135 0z m146 -8 c-4 -25
-26 -28 -26 -4 0 12 6 21 14 21 8 0 13 -8 12 -17z m-1362 -4 c-3 -6 -6 -46 -6
-90 0 -58 -3 -79 -12 -79 -10 0 -13 23 -12 90 1 80 3 90 19 90 11 0 15 -5 11
-11z m826 1 c0 -5 -11 -10 -25 -10 -14 0 -25 5 -25 10 0 6 11 10 25 10 14 0
25 -4 25 -10z m125 -20 c3 -5 1 -10 -4 -10 -6 0 -11 5 -11 10 0 6 2 10 4 10 3
0 8 -4 11 -10z m270 0 c-3 -5 -31 -10 -61 -10 -34 0 -53 -4 -49 -10 4 -6 -7
-10 -24 -10 -32 0 -39 19 -11 32 25 11 152 9 145 -2z m-395 -10 c0 -5 -11 -10
-25 -10 -14 0 -25 5 -25 10 0 6 11 10 25 10 14 0 25 -4 25 -10z m536 -22 c-1
-13 -9 -23 -16 -23 -7 0 -14 10 -15 23 -1 15 4 22 17 22 13 0 17 -6 14 -22z
m-406 2 c0 -5 -4 -10 -10 -10 -5 0 -10 5 -10 10 0 6 5 10 10 10 6 0 10 -4 10
-10z m260 -4 c0 -9 -20 -15 -61 -20 -84 -8 -99 -8 -99 4 0 6 15 10 34 10 19 0
38 5 41 10 10 16 85 13 85 -4z m-392 -13 c-2 -10 -13 -19 -26 -21 -24 -4 -25
-2 -16 22 9 23 46 21 42 -1z m132 -13 c0 -5 -4 -10 -10 -10 -5 0 -10 5 -10 10
0 6 5 10 10 10 6 0 10 -4 10 -10z m-1152 -25 c0 -21 -5 -25 -29 -25 -28 0 -43
19 -16 21 10 0 10 2 0 6 -23 9 -13 23 16 23 24 0 29 -4 29 -25z m1410 13 c-6
-16 -158 -24 -158 -9 0 6 30 12 68 14 37 2 73 4 80 5 8 1 12 -4 10 -10z m-512
-43 l2 -35 -57 0 -57 0 -1 35 -1 34 52 3 c28 2 53 2 55 1 2 -2 5 -19 7 -38z
m120 15 c-1 -19 -21 -39 -38 -40 -4 0 -6 14 -6 30 1 24 5 30 23 30 16 0 22 -6
21 -20z m134 -12 c0 -5 -4 -8 -10 -8 -5 0 -10 10 -10 23 0 18 2 19 10 7 5 -8
10 -18 10 -22z m-820 12 c0 -5 -10 -11 -22 -11 l-23 -2 23 -4 c33 -7 27 -23
-10 -25 l-33 -1 33 -4 c45 -6 40 -23 -7 -23 -33 0 -39 3 -43 25 -3 14 -1 25 5
25 5 0 4 7 -3 15 -11 13 -6 15 34 15 25 0 46 -4 46 -10z m-330 -30 c0 -5 -12
-11 -27 -11 l-28 -2 28 -4 c30 -5 36 -18 11 -27 -33 -13 -44 -6 -44 24 0 27 3
30 30 30 17 0 30 -4 30 -10z m190 -40 c0 -5 -7 -10 -15 -10 -8 0 -15 5 -15 10
0 6 7 10 15 10 8 0 15 -4 15 -10z m1217 -130 c0 -48 -1 -50 -27 -50 -26 0 -27
2 -27 50 0 48 1 50 27 50 26 0 27 -2 27 -50z m-1227 -30 c0 -22 -4 -40 -8 -40
-6 0 -9 66 -3 78 6 12 11 -5 11 -38z m-1126 11 c9 -14 -4 -41 -20 -41 -8 0
-14 10 -14 25 0 25 23 35 34 16z m340 -7 c4 -9 4 -26 0 -36 -6 -19 -12 -20
-138 -13 -72 3 -139 9 -148 11 -18 5 -24 34 -11 47 3 4 70 7 149 7 122 0 143
-2 148 -16z m304 -1 c2 -8 -5 -13 -17 -13 -12 0 -21 6 -21 16 0 18 31 15 38
-3z m122 7 c-23 -7 -23 -8 -3 -9 30 -1 38 -18 10 -23 -32 -5 -80 5 -84 19 -4
11 28 19 82 20 15 1 14 -1 -5 -7z m183 -9 c3 -11 2 -22 -1 -25 -11 -11 -70 -6
-75 7 -8 24 5 37 38 37 24 0 34 -5 38 -19z m327 -1 c0 -15 -7 -20 -25 -20 -27
0 -28 1 -19 24 9 24 44 20 44 -4z m131 -21 c-8 -39 -26 -38 -27 1 0 22 4 30
17 30 13 0 15 -6 10 -31z m129 24 c0 -5 -7 -17 -15 -27 -8 -11 -13 -28 -10
-37 3 -10 1 -20 -5 -24 -6 -4 -10 12 -10 44 0 44 3 51 20 51 11 0 20 -3 20 -7z
m-906 -39 c25 -9 19 -24 -9 -24 -24 0 -32 10 -18 23 8 8 8 8 27 1z m639 -1
c-7 -2 -21 -2 -30 0 -10 3 -4 5 12 5 17 0 24 -2 18 -5z m-485 -21 c3 -9 -10
-12 -47 -11 -36 2 -51 6 -51 16 0 18 92 14 98 -5z m162 -13 c0 -5 -1 -9 -2 -9
-84 -13 -82 -13 -73 12 6 15 75 12 75 -3z m180 -15 c0 -8 -4 -14 -10 -14 -5 0
-10 9 -10 21 0 11 5 17 10 14 6 -3 10 -13 10 -21z m280 -4 c0 -5 -2 -10 -4
-10 -3 0 -8 5 -11 10 -3 6 -1 10 4 10 6 0 11 -4 11 -10z m950 0 c0 -5 -13 -10
-30 -10 -16 0 -30 5 -30 10 0 6 14 10 30 10 17 0 30 -4 30 -10z m-2156 -46
c35 -5 46 -11 46 -25 0 -42 -10 -49 -71 -49 l-59 0 0 40 c0 44 1 45 84 34z
m126 -54 c0 -47 -2 -50 -25 -50 -23 0 -25 4 -25 43 0 48 5 57 32 57 15 0 18
-8 18 -50z m310 10 c0 -11 -6 -20 -13 -20 -19 0 -27 10 -20 26 8 21 33 17 33
-6z m123 3 c-13 -2 -35 -2 -50 0 -16 2 -5 4 22 4 28 0 40 -2 28 -4z m17 -23
c0 -5 -20 -10 -45 -10 -25 0 -45 5 -45 10 0 6 20 10 45 10 25 0 45 -4 45 -10z
m337 -12 c-3 -8 -6 -5 -6 6 -1 11 2 17 5 13 3 -3 4 -12 1 -19z m1243 -8 c0 -5
-10 -11 -22 -11 -17 -1 -19 -2 -5 -6 36 -10 15 -23 -38 -23 -30 0 -55 5 -55
10 0 6 5 10 10 10 6 0 9 3 9 8 -1 4 -1 10 0 15 2 11 101 8 101 -3z m-1642 -20
c34 0 62 -4 62 -10 0 -6 -37 -10 -90 -10 -49 0 -90 4 -90 8 0 16 14 23 35 18
11 -3 48 -6 83 -6z m402 0 c0 -5 -5 -10 -11 -10 -5 0 -7 5 -4 10 3 6 8 10 11
10 2 0 4 -4 4 -10z m-970 -60 c0 -43 -3 -50 -20 -50 -16 0 -20 7 -20 34 0 44
9 66 26 66 10 0 14 -14 14 -50z m90 5 c0 -31 -3 -35 -25 -35 -21 0 -25 5 -25
28 0 33 7 42 32 42 14 0 18 -8 18 -35z m85 -5 c0 -29 -4 -36 -22 -38 -21 -3
-23 1 -23 38 0 37 2 41 23 38 18 -2 22 -9 22 -38z m795 30 c0 -5 -4 -10 -10
-10 -5 0 -10 5 -10 10 0 6 5 10 10 10 6 0 10 -4 10 -10z m1220 -10 c-20 -13
-100 -13 -100 0 0 6 26 10 58 10 40 0 53 -3 42 -10z m-1599 -16 c30 -5 37 -10
37 -30 0 -27 -13 -29 -83 -17 l-40 8 45 6 45 6 -42 1 c-31 2 -43 6 -43 17 0
16 22 19 81 9z m669 -29 c0 -15 -6 -25 -15 -25 -10 0 -14 9 -13 25 1 14 8 25
15 25 7 0 13 -11 13 -25z m-290 -11 c0 -8 -4 -12 -10 -9 -5 3 -10 10 -10 16 0
5 5 9 10 9 6 0 10 -7 10 -16z m150 6 c0 -5 -5 -10 -11 -10 -5 0 -7 5 -4 10 3
6 8 10 11 10 2 0 4 -4 4 -10z m-1020 -500 c0 -44 -3 -80 -8 -80 -4 0 -43 36
-87 80 l-80 80 88 0 87 0 0 -80z m3640 60 c0 -5 -4 -10 -10 -10 -5 0 -10 5
-10 10 0 6 5 10 10 10 6 0 10 -4 10 -10z m95 -41 c0 -19 -6 -25 -28 -27 -25
-3 -27 -1 -27 31 0 34 1 35 28 28 20 -6 27 -14 27 -32z m-282 -11 c3 -18 1
-37 -4 -42 -10 -11 -10 -9 -15 42 -1 17 1 32 6 32 4 0 10 -15 13 -32z m-3118
-143 c-4 -75 -10 -133 -14 -128 -11 15 -1 287 11 275 7 -7 8 -54 3 -147z
m1215 23 c23 -68 44 -129 47 -135 3 -10 -19 -13 -96 -13 -56 0 -101 3 -101 7
0 4 14 45 31 92 17 48 38 105 46 129 8 23 18 42 23 42 5 0 27 -55 50 -122z
m889 40 c-1 -42 -3 -48 -9 -28 -12 36 -12 80 0 80 6 0 10 -24 9 -52z m1261 48
c0 -3 -4 -8 -10 -11 -5 -3 -10 -1 -10 4 0 6 5 11 10 11 6 0 10 -2 10 -4z
m-2981 -87 c-26 -17 -35 -9 -31 26 l4 35 21 -26 c16 -22 18 -27 6 -35z m437 9
c-2 -29 -4 -77 -5 -105 l-1 -53 -65 0 c-61 0 -65 1 -65 23 0 18 124 187 137
187 2 0 2 -24 -1 -52z m2544 12 c0 -5 -5 -10 -11 -10 -5 0 -7 5 -4 10 3 6 8
10 11 10 2 0 4 -4 4 -10z m160 -11 c0 -6 -4 -7 -10 -4 -5 3 -10 11 -10 16 0 6
5 7 10 4 6 -3 10 -11 10 -16z m-734 -46 c6 3 9 -37 7 -101 -1 -59 -4 -334 -7
-611 -5 -431 -8 -507 -21 -521 -10 -11 -15 -38 -15 -83 0 -37 -4 -67 -9 -67
-14 0 -17 46 -9 104 4 27 8 275 9 550 2 623 7 763 24 740 6 -10 16 -14 21 -11z
m-1188 1 c20 -9 32 -18 26 -21 -7 -2 -27 5 -45 16 -41 25 -32 27 19 5z m192
-26 c0 -6 -7 -5 -15 2 -8 7 -15 17 -15 22 0 6 7 5 15 -2 8 -7 15 -17 15 -22z
m1450 21 c0 -6 7 -8 18 -4 12 4 14 3 6 -5 -6 -6 -18 -8 -27 -4 -18 7 -23 24
-7 24 6 0 10 -5 10 -11z m80 -9 c0 -5 -2 -10 -4 -10 -3 0 -8 5 -11 10 -3 6 -1
10 4 10 6 0 11 -4 11 -10z m-932 -114 c-3 -94 -4 -101 -18 -82 -14 20 -14 20
-21 -4 -4 -14 -7 23 -8 82 -1 94 1 107 17 111 9 2 21 2 25 -1 4 -2 7 -50 5
-106z m1165 99 c-3 -9 -8 -14 -10 -11 -3 3 -2 9 2 15 9 16 15 13 8 -4z m-1768
-85 c4 -6 -10 -10 -35 -10 -34 0 -41 -3 -38 -17 2 -12 12 -18 28 -17 13 1 31
-6 40 -14 13 -14 12 -15 -18 -9 -37 8 -41 -4 -12 -35 11 -12 18 -24 15 -26 -8
-8 -54 53 -50 66 3 7 1 10 -4 7 -15 -9 -25 17 -22 55 2 19 5 38 8 42 5 9 78
-26 88 -42z m-1315 31 c0 -5 -3 -24 -7 -42 -6 -32 -7 -33 -13 -9 -7 29 -2 60
11 60 5 0 9 -4 9 -9z m-484 -99 c-11 -10 -15 4 -8 28 l7 25 3 -23 c2 -13 1
-26 -2 -30z m2204 13 c12 8 41 -36 32 -49 -11 -18 -9 -30 6 -48 17 -21 3 -24
-18 -5 -8 6 -7 3 3 -9 9 -11 17 -27 17 -35 -1 -21 -48 60 -56 95 -5 21 -8 25
-15 15 -6 -10 -9 -10 -9 -2 0 7 -7 10 -17 6 -11 -5 -14 -3 -8 6 4 7 18 11 31
8 21 -4 24 -1 19 17 -2 11 -2 15 1 8 3 -6 10 -10 14 -7z m-5235 -15 c-3 -5
-13 -10 -21 -10 -8 0 -14 5 -14 10 0 6 9 10 21 10 11 0 17 -4 14 -10z m35 0
c0 -5 -4 -10 -10 -10 -5 0 -10 5 -10 10 0 6 5 10 10 10 6 0 10 -4 10 -10z
m444 2 c2 -4 -4 -8 -14 -8 -10 0 -16 4 -14 8 3 4 9 8 14 8 5 0 11 -4 14 -8z
m586 -2 c0 -5 -4 -10 -10 -10 -5 0 -10 5 -10 10 0 6 5 10 10 10 6 0 10 -4 10
-10z m35 0 c-3 -5 -11 -10 -16 -10 -6 0 -7 5 -4 10 3 6 11 10 16 10 6 0 7 -4
4 -10z m120 0 c3 -5 1 -10 -4 -10 -6 0 -11 5 -11 10 0 6 2 10 4 10 3 0 8 -4
11 -10z m-2532 -7 c-7 -2 -19 -2 -25 0 -7 3 -2 5 12 5 14 0 19 -2 13 -5z m480
0 c-7 -2 -21 -2 -30 0 -10 3 -4 5 12 5 17 0 24 -2 18 -5z m44 1 c-3 -3 -12 -4
-19 -1 -8 3 -5 6 6 6 11 1 17 -2 13 -5z m1110 0 c-3 -3 -12 -4 -19 -1 -8 3 -5
6 6 6 11 1 17 -2 13 -5z m1233 -4 c0 -5 -4 -10 -9 -10 -6 0 -13 5 -16 10 -3 6
1 10 9 10 9 0 16 -4 16 -10z m4774 -6 c3 -8 2 -12 -4 -9 -6 3 -10 10 -10 16 0
14 7 11 14 -7z m-7079 -14 c3 -5 1 -10 -4 -10 -6 0 -11 5 -11 10 0 6 2 10 4
10 3 0 8 -4 11 -10z m-210 -19 c-3 -6 -11 -11 -16 -11 -5 0 -4 6 3 14 14 16
24 13 13 -3z m3141 4 c8 -8 21 -12 29 -9 7 3 22 1 32 -6 14 -8 -6 -10 -86 -5
-124 7 -150 18 -61 26 36 3 66 6 68 7 2 1 10 -5 18 -13z m84 5 c0 -5 -4 -10
-10 -10 -5 0 -10 5 -10 10 0 6 5 10 10 10 6 0 10 -4 10 -10z m200 -10 c0 -5
-15 -10 -32 -9 -28 0 -30 2 -13 9 28 12 45 12 45 0z m2133 -13 c3 -8 1 -20 -4
-28 -6 -10 -9 -7 -9 14 0 29 5 35 13 14z m550 -14 c-5 -12 -3 -14 8 -8 12 8
12 6 1 -8 -8 -9 -11 -21 -8 -26 4 -5 2 -13 -4 -16 -8 -5 -5 -16 6 -33 l17 -27
-21 19 c-17 14 -22 31 -22 66 0 26 3 50 6 53 12 11 23 -3 17 -20z m-5700 10
c-7 -2 -19 -2 -25 0 -7 3 -2 5 12 5 14 0 19 -2 13 -5z m1927 -13 c0 -11 -76
-11 -185 -2 l-80 7 55 5 c75 7 210 0 210 -10z m-295 0 c3 -5 2 -10 -4 -10 -5
0 -13 5 -16 10 -3 6 -2 10 4 10 5 0 13 -4 16 -10z m385 0 c0 -5 -7 -10 -15
-10 -8 0 -15 5 -15 10 0 6 7 10 15 10 8 0 15 -4 15 -10z m213 0 c31 -8 31 -8
-13 -10 -25 -1 -49 -1 -55 0 -5 1 -36 1 -67 1 -32 0 -58 4 -58 9 0 11 146 11
193 0z m3642 -22 c13 -28 14 -30 1 -13 -9 11 -20 26 -26 33 -7 8 -7 12 -1 12
6 0 18 -15 26 -32z m-3529 14 c-5 -8 -66 -4 -66 4 0 2 16 4 36 4 19 0 33 -4
30 -8z m47 1 c-7 -2 -19 -2 -25 0 -7 3 -2 5 12 5 14 0 19 -2 13 -5z m172 -13
c3 -5 1 -10 -4 -10 -6 0 -11 5 -11 10 0 6 2 10 4 10 3 0 8 -4 11 -10z m2300
-20 c4 -6 -33 -10 -104 -10 -61 0 -111 -3 -111 -7 0 -3 15 -19 33 -35 22 -19
26 -26 12 -21 -11 3 -26 10 -32 16 -10 7 -13 4 -13 -11 0 -12 -4 -24 -10 -27
-11 -7 -13 14 -4 68 l7 37 108 0 c61 0 110 -4 114 -10z m-2260 -20 c-3 -5 -10
-10 -16 -10 -5 0 -9 5 -9 10 0 6 7 10 16 10 8 0 12 -4 9 -10z m275 0 c72 0
100 -3 90 -10 -8 -5 -37 -10 -65 -11 l-50 -1 40 -9 c22 -4 69 -8 105 -9 l65
-2 -45 -12 c-27 -7 -57 -9 -75 -4 -16 4 -33 4 -38 -1 -5 -5 -23 -3 -43 5 -19
8 -34 11 -34 8 0 -4 -6 -2 -12 3 -7 5 -31 8 -53 7 -112 -8 -435 -11 -400 -4
22 4 101 10 176 12 98 2 135 6 132 15 -6 14 21 21 67 16 19 -1 82 -3 140 -3z
m-3367 -7 c-7 -2 -19 -2 -25 0 -7 3 -2 5 12 5 14 0 19 -2 13 -5z m2222 -3 c-3
-5 -16 -10 -28 -9 -20 1 -20 2 3 9 14 4 26 8 28 9 2 1 0 -3 -3 -9z m155 0 c0
-6 -26 -10 -59 -10 -33 0 -63 5 -66 10 -4 6 18 10 59 10 37 0 66 -4 66 -10z
m195 0 c26 -11 15 -13 -64 -10 -97 3 -122 19 -31 19 41 0 84 -4 95 -9z m220 1
c7 -13 -44 -17 -130 -11 l-70 5 90 5 c50 4 93 7 97 8 4 1 9 -2 13 -7z m106 0
c-8 -5 -20 -7 -28 -4 -21 8 -15 13 15 13 20 0 23 -3 13 -9z m2429 -11 c0 -5
-2 -10 -4 -10 -3 0 -8 5 -11 10 -3 6 -1 10 4 10 6 0 11 -4 11 -10z m-5597 -27
c-7 -2 -19 -2 -25 0 -7 3 -2 5 12 5 14 0 19 -2 13 -5z m5894 -75 c-3 -8 -6 -5
-6 6 -1 11 2 17 5 13 3 -3 4 -12 1 -19z m1513 -14 c0 -2 -17 -4 -37 -3 -33 1
-35 2 -13 8 23 7 50 4 50 -5z m-1503 -41 c-9 -21 -13 -23 -15 -9 -5 24 6 49
18 41 6 -3 5 -16 -3 -32z m853 -7 c0 -32 -3 -35 -32 -39 l-33 -4 35 -1 35 -2
-3 -287 c-2 -159 -4 -289 -5 -289 -1 -1 -23 -5 -49 -8 l-48 -7 0 301 c0 260 2
301 14 297 9 -4 13 -1 11 6 -4 9 57 64 73 67 1 0 2 -15 2 -34z m-3004 15 c-18
-7 -66 -3 -66 5 0 2 19 4 43 3 30 0 36 -3 23 -8z m3839 -1 c-4 -6 -1 -17 5
-25 8 -10 9 -15 2 -15 -6 0 -13 9 -17 19 -3 11 -14 22 -23 24 -10 3 -5 5 11 6
17 1 26 -3 22 -9z m-3655 -95 c0 -5 14 -12 31 -15 55 -9 48 -30 -10 -30 -33 0
-51 4 -51 12 0 9 -3 9 -12 0 -7 -7 -33 -12 -58 -12 -34 0 -48 5 -58 20 -7 11
-25 21 -40 22 -25 2 157 15 186 14 7 -1 13 -5 12 -11z m2048 2 c7 -5 12 -4 12
2 0 6 7 11 15 11 8 0 15 -9 15 -19 0 -11 5 -23 10 -26 17 -11 11 -24 -15 -31
-53 -13 -21 -24 73 -25 70 -1 89 -4 67 -10 -20 -5 -10 -6 34 -3 36 3 68 7 72
10 4 2 10 0 14 -6 6 -10 -49 -27 -68 -22 -5 1 -6 -1 -3 -6 3 -5 38 -4 78 2 51
8 63 12 41 14 -21 2 -33 9 -33 18 0 10 13 14 55 13 59 -2 68 -9 33 -27 -20
-10 -14 -12 37 -11 82 2 85 1 85 -16 0 -11 -12 -15 -47 -15 -48 0 -378 -16
-505 -24 l-68 -5 0 92 0 92 43 0 c23 0 48 -4 55 -8z m1845 4 c5 -1 6 -5 3 -9
-3 -5 -19 -7 -35 -4 -35 5 -34 20 1 16 13 -1 27 -3 31 -3z m-2653 -11 c-20
-13 -73 -13 -65 0 3 6 23 10 43 10 28 0 33 -3 22 -10z m-1423 -23 c-3 -10
-156 -16 -163 -6 -2 4 15 9 38 11 75 5 128 3 125 -5z m3733 -39 c0 -4 -9 -8
-20 -8 -11 0 -20 4 -20 9 0 6 9 9 20 8 11 -1 20 -5 20 -9z m25 2 c3 -5 1 -10
-4 -10 -6 0 -11 5 -11 10 0 6 2 10 4 10 3 0 8 -4 11 -10z m-2027 -7 c-16 -2
-40 -2 -55 0 -16 2 -3 4 27 4 30 0 43 -2 28 -4z m1000 -5 c-3 -7 -17 -15 -33
-16 -25 -3 -27 -2 -16 12 16 19 55 22 49 4z m-1803 -32 c31 -20 202 -25 190
-6 -4 6 12 10 39 11 25 1 79 3 119 4 39 1 83 0 96 -3 20 -4 21 -6 7 -14 -28
-16 -17 -24 27 -20 23 3 39 2 36 -2 -6 -6 -43 -14 -74 -15 -15 -1 -17 -3 -6
-10 7 -5 28 -6 47 -4 l34 5 0 -46 c0 -41 -2 -46 -22 -46 -13 0 -70 -4 -128 -9
-58 -6 -145 -12 -195 -16 -49 -3 -108 -7 -130 -10 -22 -2 -103 -7 -180 -10
-77 -3 -161 -9 -187 -12 l-48 -5 2 71 2 71 58 0 c40 0 57 -4 53 -11 -5 -7 40
-9 151 -4 88 3 203 7 257 8 53 2 97 6 97 10 0 4 0 16 0 27 0 22 -34 28 -45 9
-7 -10 -247 -5 -303 7 -17 3 -21 1 -16 -7 5 -9 -4 -10 -37 -4 -117 20 -137 23
-171 20 -21 -1 -38 1 -38 6 0 8 56 12 244 16 72 2 106 -1 121 -11z m835 9 c0
-3 -10 -10 -22 -14 -21 -8 -20 -9 9 -9 17 1 46 -5 63 -12 17 -7 33 -10 37 -6
3 3 1 6 -6 6 -7 0 -9 5 -6 10 15 24 25 6 25 -44 l0 -53 -67 -2 c-38 0 -87 -4
-110 -7 l-43 -6 0 44 0 45 76 1 c42 1 79 4 83 7 3 4 -26 6 -64 5 -96 -2 -95
-2 -95 20 0 18 7 20 60 20 33 0 60 -2 60 -5z m-687 -12 c-7 -2 -19 -2 -25 0
-7 3 -2 5 12 5 14 0 19 -2 13 -5z m45 -50 c-10 -2 -26 -2 -35 0 -10 3 -2 5 17
5 19 0 27 -2 18 -5z m1107 -43 c-16 -4 -45 -8 -62 -9 l-33 -1 0 -267 c0 -148
-4 -262 -8 -255 -8 12 -5 505 3 530 3 8 25 12 67 11 50 -1 57 -3 33 -9z m-587
-300 c-2 -71 -6 -130 -10 -130 -10 0 -11 244 -1 253 3 4 8 7 10 7 2 0 3 -58 1
-130z m-208 20 c0 -5 -5 -10 -11 -10 -5 0 -7 5 -4 10 3 6 8 10 11 10 2 0 4 -4
4 -10z m-1890 -11 c0 -9 -149 -24 -157 -16 -8 9 53 22 107 22 28 1 50 -2 50
-6z m1680 7 c0 -9 -39 -13 -51 -5 -10 6 -4 9 19 9 17 0 32 -2 32 -4z m-87 -14
c3 -4 -31 -8 -76 -9 -44 -2 -83 -6 -86 -10 -3 -5 -55 -9 -116 -9 -130 -2 -117
2 65 20 166 17 207 18 213 8z m240 1 c-18 -2 -48 -2 -65 0 -18 2 -4 4 32 4 36
0 50 -2 33 -4z m-640 -30 c-7 -2 -21 -2 -30 0 -10 3 -4 5 12 5 17 0 24 -2 18
-5z m-108 -16 c-23 -13 -75 -18 -75 -6 0 4 17 10 38 12 20 2 42 4 47 5 6 1 1
-4 -10 -11z m-397 -29 c-6 -17 -53 -27 -114 -25 -29 1 -50 -1 -48 -4 2 -4 -22
-7 -54 -7 -31 1 -77 -2 -102 -6 -25 -3 -115 -11 -200 -16 -170 -11 -213 -14
-310 -23 -36 -4 -121 -9 -190 -13 -69 -3 -127 -7 -130 -9 -5 -3 -71 -8 -280
-21 -62 -3 -104 -8 -195 -19 -22 -3 -94 -8 -160 -11 -96 -5 -118 -3 -108 7 8
8 49 14 110 16 54 2 123 8 153 14 30 6 121 13 202 16 81 3 145 10 142 14 -7
13 24 11 48 -2 15 -8 19 -8 13 0 -4 8 5 11 32 10 21 -1 79 1 128 4 50 4 133
10 185 14 52 3 122 6 155 5 33 0 65 4 71 9 7 5 62 11 123 14 61 2 116 7 122
10 5 4 69 9 142 12 73 3 139 9 147 14 24 14 122 11 118 -3z m-991 -4 c-3 -3
-12 -4 -19 -1 -8 3 -5 6 6 6 11 1 17 -2 13 -5z m418 -9 c-25 -9 -104 -12 -99
-4 3 5 29 9 57 8 29 0 48 -2 42 -4z m-122 -12 c-7 -2 -21 -2 -30 0 -10 3 -4 5
12 5 17 0 24 -2 18 -5z m-120 -10 c-7 -2 -21 -2 -30 0 -10 3 -4 5 12 5 17 0
24 -2 18 -5z m-748 -23 c-16 -4 -57 -7 -90 -7 -59 0 -60 0 -15 7 25 4 65 7 90
7 40 1 42 0 15 -7z m-377 -27 c-10 -2 -26 -2 -35 0 -10 3 -2 5 17 5 19 0 27
-2 18 -5z m5016 -49 c24 -9 19 -23 -6 -17 -23 5 -23 5 -3 -11 20 -17 20 -17
-2 -13 -16 4 -23 0 -23 -9 0 -8 10 -19 23 -24 15 -7 -2 -8 -53 -4 -76 7 -106
14 -56 14 15 0 25 4 21 9 -3 5 5 13 17 17 12 3 31 15 42 25 23 22 20 21 40 13z
m-5001 -11 c-7 -2 -19 -2 -25 0 -7 3 -2 5 12 5 14 0 19 -2 13 -5z m-104 -7
c-2 -2 -30 -7 -63 -11 -41 -5 -56 -3 -52 4 4 6 32 11 63 11 31 0 54 -2 52 -4z"/>
<path d="M5706 5106 c7 -19 38 -22 32 -3 -3 6 -12 13 -21 15 -12 2 -15 -1 -11
-12z"/>
<path d="M5765 5110 c11 -5 27 -9 35 -9 9 0 8 4 -5 9 -11 5 -27 9 -35 9 -9 0
-8 -4 5 -9z"/>
<path d="M5268 5093 c7 -3 16 -2 19 1 4 3 -2 6 -13 5 -11 0 -14 -3 -6 -6z"/>
<path d="M4898 5073 c7 -3 16 -2 19 1 4 3 -2 6 -13 5 -11 0 -14 -3 -6 -6z"/>
<path d="M5168 5073 c6 -2 18 -2 25 0 6 3 1 5 -13 5 -14 0 -19 -2 -12 -5z"/>
<path d="M4838 5063 c7 -3 16 -2 19 1 4 3 -2 6 -13 5 -11 0 -14 -3 -6 -6z"/>
<path d="M4145 5049 c-11 -16 -1 -19 13 -3 7 8 8 14 3 14 -5 0 -13 -5 -16 -11z"/>
<path d="M4523 4383 c9 -2 23 -2 30 0 6 3 -1 5 -18 5 -16 0 -22 -2 -12 -5z"/>
<path d="M4478 4333 c12 -2 32 -2 45 0 12 2 2 4 -23 4 -25 0 -35 -2 -22 -4z"/>
<path d="M4498 4303 c12 -2 32 -2 45 0 12 2 2 4 -23 4 -25 0 -35 -2 -22 -4z"/>
<path d="M4497 4273 c18 -2 50 -2 70 0 21 2 7 4 -32 4 -38 0 -55 -2 -38 -4z"/>
<path d="M4503 4213 c9 -2 23 -2 30 0 6 3 -1 5 -18 5 -16 0 -22 -2 -12 -5z"/>
<path d="M4488 4113 c12 -2 32 -2 45 0 12 2 2 4 -23 4 -25 0 -35 -2 -22 -4z"/>
<path d="M4498 4083 c12 -2 32 -2 45 0 12 2 2 4 -23 4 -25 0 -35 -2 -22 -4z"/>
<path d="M4463 4023 c9 -2 25 -2 35 0 9 3 1 5 -18 5 -19 0 -27 -2 -17 -5z"/>
<path d="M6586 2683 c-4 -9 -3 -20 1 -24 4 -4 9 3 9 17 2 28 -1 31 -10 7z"/>
<path d="M5970 2221 c0 -5 -8 -12 -17 -14 -10 -3 5 -5 32 -4 28 0 39 2 26 4
-19 4 -21 7 -10 14 11 7 9 9 -8 9 -13 0 -23 -4 -23 -9z"/>
<path d="M6098 2183 c7 -3 16 -2 19 1 4 3 -2 6 -13 5 -11 0 -14 -3 -6 -6z"/>
<path d="M6110 2160 c-10 -7 4 -8 45 -4 33 4 62 8 64 10 10 9 -96 3 -109 -6z"/>
<path d="M5035 2140 c3 -6 -4 -14 -17 -19 -22 -10 -22 -10 5 -8 15 1 27 7 27
14 0 7 18 13 43 16 40 3 39 4 -11 5 -34 1 -51 -2 -47 -8z"/>
<path d="M5103 2123 c9 -2 23 -2 30 0 6 3 -1 5 -18 5 -16 0 -22 -2 -12 -5z"/>
<path d="M6018 5703 c7 -3 16 -2 19 1 4 3 -2 6 -13 5 -11 0 -14 -3 -6 -6z"/>
<path d="M6050 5686 c0 -2 7 -6 15 -10 8 -3 15 -1 15 4 0 6 -7 10 -15 10 -8 0
-15 -2 -15 -4z"/>
<path d="M6255 5640 c4 -6 11 -8 16 -5 14 9 11 15 -7 15 -8 0 -12 -5 -9 -10z"/>
<path d="M6043 5133 c9 -2 23 -2 30 0 6 3 -1 5 -18 5 -16 0 -22 -2 -12 -5z"/>
<path d="M556 2473 c-4 -5 -37 -13 -74 -19 l-67 -12 55 0 c64 0 94 8 98 26 2
14 -1 15 -12 5z"/>
<path d="M593 2463 c-29 -10 -10 -23 34 -23 36 0 44 3 35 12 -12 12 -49 18
-69 11z"/>
<path d="M728 2463 c7 -3 16 -2 19 1 4 3 -2 6 -13 5 -11 0 -14 -3 -6 -6z"/>
<path d="M593 2413 c9 -2 25 -2 35 0 9 3 1 5 -18 5 -19 0 -27 -2 -17 -5z"/>
<path d="M390 2361 c0 -6 -7 -11 -16 -11 -15 0 -15 -2 0 -25 19 -29 20 -35 5
-35 -6 0 -17 -6 -24 -14 -12 -11 -10 -15 13 -26 34 -17 53 -20 66 -13 5 4 1
10 -10 14 -10 4 19 4 66 0 116 -8 212 -8 295 2 39 5 80 8 93 8 12 0 22 4 22 9
0 9 -70 16 -107 11 -7 -1 -13 3 -13 9 0 5 7 10 16 10 9 0 14 7 12 18 -2 11
-12 17 -28 17 -14 0 -28 7 -32 18 -8 19 -39 24 -35 5 3 -20 -71 -22 -93 -3
-16 15 -18 15 -24 -1 -4 -12 -12 -14 -29 -9 -12 4 -50 6 -85 5 -37 -1 -69 4
-78 11 -10 8 -14 8 -14 0z m180 -91 c-20 -13 -53 -13 -45 0 3 6 18 10 33 10
21 0 24 -2 12 -10z"/>
<path d="M833 2333 c9 -2 23 -2 30 0 6 3 -1 5 -18 5 -16 0 -22 -2 -12 -5z"/>
<path d="M1198 2313 c7 -3 16 -2 19 1 4 3 -2 6 -13 5 -11 0 -14 -3 -6 -6z"/>
<path d="M0 2268 c0 -42 3 -43 73 -32 36 6 52 24 21 24 -8 0 -13 4 -9 10 3 5
13 6 22 3 14 -5 13 -2 -4 16 -16 17 -30 21 -62 20 -40 -3 -41 -3 -41 -41z"/>
<path d="M843 2303 c9 -2 23 -2 30 0 6 3 -1 5 -18 5 -16 0 -22 -2 -12 -5z"/>
<path d="M178 2243 c6 -2 18 -2 25 0 6 3 1 5 -13 5 -14 0 -19 -2 -12 -5z"/>
<path d="M925 2230 c-3 -5 -2 -10 4 -10 5 0 13 5 16 10 3 6 2 10 -4 10 -5 0
-13 -4 -16 -10z"/>
<path d="M695 2190 c-4 -11 -10 -18 -15 -15 -5 3 -11 1 -14 -4 -9 -14 66 -23
94 -12 14 5 20 10 13 10 -6 1 -9 10 -6 21 5 17 0 20 -30 20 -27 0 -37 -5 -42
-20z"/>
<path d="M828 2163 c6 -2 18 -2 25 0 6 3 1 5 -13 5 -14 0 -19 -2 -12 -5z"/>
<path d="M382 2128 c-15 -6 -15 -7 3 -9 20 -2 49 -2 93 0 13 1 20 5 17 11 -6
10 -84 9 -113 -2z"/>
<path d="M208 2123 c7 -3 16 -2 19 1 4 3 -2 6 -13 5 -11 0 -14 -3 -6 -6z"/>
<path d="M265 2120 c17 -7 14 -9 -15 -10 -19 -1 -46 -6 -60 -10 -20 -6 -14 -8
25 -8 45 0 119 15 87 17 -7 1 -10 6 -7 11 4 6 -6 10 -22 9 -25 0 -26 -1 -8 -9z"/>
<path d="M75 2100 c-3 -6 1 -7 9 -4 18 7 21 14 7 14 -6 0 -13 -4 -16 -10z"/>
<path d="M118 2103 c7 -3 16 -2 19 1 4 3 -2 6 -13 5 -11 0 -14 -3 -6 -6z"/>
<path d="M138 2083 c7 -3 16 -2 19 1 4 3 -2 6 -13 5 -11 0 -14 -3 -6 -6z"/>
<path d="M2528 1973 c7 -3 16 -2 19 1 4 3 -2 6 -13 5 -11 0 -14 -3 -6 -6z"/>
<path d="M3860 1959 c-28 -5 -23 -7 28 -8 34 0 62 1 62 3 0 8 -56 11 -90 5z"/>
<path d="M3243 1943 c15 -2 37 -2 50 0 12 2 0 4 -28 4 -27 0 -38 -2 -22 -4z"/>
<path d="M3658 1945 c-3 -3 -61 -9 -129 -14 l-124 -9 127 1 c114 2 151 8 136
22 -2 3 -7 3 -10 0z"/>
<path d="M3698 1943 c12 -2 30 -2 40 0 9 3 -1 5 -23 4 -22 0 -30 -2 -17 -4z"/>
<path d="M3098 1933 c6 -2 18 -2 25 0 6 3 1 5 -13 5 -14 0 -19 -2 -12 -5z"/>
<path d="M3288 1913 c6 -2 18 -2 25 0 6 3 1 5 -13 5 -14 0 -19 -2 -12 -5z"/>
<path d="M2738 1903 c6 -2 18 -2 25 0 6 3 1 5 -13 5 -14 0 -19 -2 -12 -5z"/>
<path d="M2428 1883 c17 -2 47 -2 65 0 17 2 3 4 -33 4 -36 0 -50 -2 -32 -4z"/>
<path d="M2938 1883 c12 -2 32 -2 45 0 12 2 2 4 -23 4 -25 0 -35 -2 -22 -4z"/>
<path d="M3217 1883 c-64 -3 -75 -6 -65 -17 8 -9 26 -12 48 -9 19 2 94 8 165
12 72 5 108 9 80 10 -27 0 -72 3 -100 5 -27 1 -85 1 -128 -1z"/>
<path d="M1745 1869 c-60 -5 -123 -10 -140 -13 -42 -6 200 5 310 14 l90 7 -75
0 c-41 0 -124 -4 -185 -8z"/>
<path d="M2173 1863 c9 -2 23 -2 30 0 6 3 -1 5 -18 5 -16 0 -22 -2 -12 -5z"/>
<path d="M3031 1866 c11 -9 69 -15 64 -6 -3 6 -20 10 -37 10 -17 0 -29 -2 -27
-4z"/>
<path d="M2531 1856 c2 -2 36 -6 74 -8 40 -3 61 -2 50 3 -19 7 -132 13 -124 5z"/>
<path d="M2810 1850 c-43 -7 -42 -7 20 -8 36 0 88 3 115 8 50 7 49 7 -20 7
-38 0 -90 -3 -115 -7z"/>
<path d="M1443 1843 c9 -2 25 -2 35 0 9 3 1 5 -18 5 -19 0 -27 -2 -17 -5z"/>
<path d="M2980 1829 c0 -5 5 -7 10 -4 6 3 10 8 10 11 0 2 -4 4 -10 4 -5 0 -10
-5 -10 -11z"/>
<path d="M1628 1823 c7 -3 16 -2 19 1 4 3 -2 6 -13 5 -11 0 -14 -3 -6 -6z"/>
<path d="M2500 1822 c0 -4 16 -6 35 -4 19 2 35 6 35 8 0 2 -16 4 -35 4 -19 0
-35 -4 -35 -8z"/>
<path d="M2660 1820 c-21 -7 -21 -8 -5 -9 11 0 27 4 35 9 18 11 5 11 -30 0z"/>
<path d="M2448 1813 c7 -3 16 -2 19 1 4 3 -2 6 -13 5 -11 0 -14 -3 -6 -6z"/>
<path d="M1308 1793 c18 -2 45 -2 60 0 15 2 0 4 -33 4 -33 0 -45 -2 -27 -4z"/>
<path d="M2368 1793 c6 -2 18 -2 25 0 6 3 1 5 -13 5 -14 0 -19 -2 -12 -5z"/>
<path d="M1568 1783 c7 -3 16 -2 19 1 4 3 -2 6 -13 5 -11 0 -14 -3 -6 -6z"/>
<path d="M1928 1783 c7 -3 16 -2 19 1 4 3 -2 6 -13 5 -11 0 -14 -3 -6 -6z"/>
<path d="M2090 1774 c0 -15 26 -19 34 -5 3 5 -3 11 -14 14 -13 3 -20 0 -20 -9z"/>
<path d="M968 1773 c6 -2 18 -2 25 0 6 3 1 5 -13 5 -14 0 -19 -2 -12 -5z"/>
<path d="M1768 1773 c7 -3 16 -2 19 1 4 3 -2 6 -13 5 -11 0 -14 -3 -6 -6z"/>
<path d="M335 1760 c28 -12 37 -12 30 0 -3 6 -16 10 -28 9 -21 0 -21 -1 -2 -9z"/>
<path d="M868 1763 c6 -2 18 -2 25 0 6 3 1 5 -13 5 -14 0 -19 -2 -12 -5z"/>
<path d="M1426 1763 c-2 -2 -30 -7 -62 -12 -44 -7 -12 -9 132 -8 145 2 188 5
179 14 -8 8 -51 11 -129 10 -64 -1 -118 -3 -120 -4z"/>
<path d="M2809 1765 c-3 -2 -70 -9 -150 -15 -79 -6 -157 -15 -174 -20 -36 -11
101 -4 213 11 40 5 105 9 143 9 44 0 68 4 64 10 -6 10 -87 14 -96 5z"/>
<path d="M155 1750 l-30 -8 30 0 c17 0 39 3 50 8 l20 9 -20 -1 c-11 0 -33 -4
-50 -8z"/>
<path d="M645 1750 c-18 -8 -17 -9 8 -9 15 -1 27 4 27 9 0 12 -8 12 -35 0z"/>
<path d="M763 1753 c15 -2 37 -2 50 0 12 2 0 4 -28 4 -27 0 -38 -2 -22 -4z"/>
<path d="M1278 1753 c7 -3 16 -2 19 1 4 3 -2 6 -13 5 -11 0 -14 -3 -6 -6z"/>
<path d="M1938 1753 c12 -2 30 -2 40 0 9 3 -1 5 -23 4 -22 0 -30 -2 -17 -4z"/>
<path d="M1065 1740 c29 -7 29 -8 -9 -9 -22 0 -37 -3 -34 -6 10 -10 138 -15
138 -6 0 5 -6 11 -12 14 -7 3 7 3 32 1 38 -3 40 -2 15 5 -16 5 -59 9 -95 9
-49 0 -58 -2 -35 -8z"/>
<path d="M1723 1743 c15 -2 37 -2 50 0 12 2 0 4 -28 4 -27 0 -38 -2 -22 -4z"/>
<path d="M1863 1743 c9 -2 25 -2 35 0 9 3 1 5 -18 5 -19 0 -27 -2 -17 -5z"/>
<path d="M905 1728 c-22 -4 -61 -7 -87 -7 -27 -1 -48 -5 -48 -9 0 -4 28 -7 63
-6 34 1 88 2 120 3 43 1 57 5 57 16 0 18 -1 18 -34 6 -13 -6 -26 -7 -28 -3 -2
4 -21 4 -43 0z"/>
<path d="M368 1723 c6 -2 18 -2 25 0 6 3 1 5 -13 5 -14 0 -19 -2 -12 -5z"/>
<path d="M1533 1723 c9 -2 25 -2 35 0 9 3 1 5 -18 5 -19 0 -27 -2 -17 -5z"/>
<path d="M208 1713 c6 -2 18 -2 25 0 6 3 1 5 -13 5 -14 0 -19 -2 -12 -5z"/>
<path d="M1157 1706 c-28 -10 -37 -27 -14 -25 6 0 39 6 72 13 l60 13 -46 4
c-25 2 -58 0 -72 -5z"/>
<path d="M2338 1713 c12 -2 32 -2 45 0 12 2 2 4 -23 4 -25 0 -35 -2 -22 -4z"/>
<path d="M83 1703 c9 -2 23 -2 30 0 6 3 -1 5 -18 5 -16 0 -22 -2 -12 -5z"/>
<path d="M143 1703 c9 -2 25 -2 35 0 9 3 1 5 -18 5 -19 0 -27 -2 -17 -5z"/>
<path d="M2185 1700 l-60 -7 57 -1 c31 -1 60 3 63 8 3 6 5 9 3 8 -2 -1 -30 -4
-63 -8z"/>
<path d="M2795 1700 c-3 -5 1 -10 9 -10 9 0 16 5 16 10 0 6 -4 10 -9 10 -6 0
-13 -4 -16 -10z"/>
<path d="M350 1690 c-8 -5 -26 -10 -40 -11 l-25 0 24 -12 c17 -8 26 -8 28 -1
2 7 24 10 56 8 52 -4 52 -4 22 11 -36 17 -45 18 -65 5z"/>
<path d="M510 1689 l-55 -6 55 -3 c58 -3 146 0 193 5 16 2 36 1 45 -2 13 -6
13 -8 -4 -14 -15 -6 -12 -8 14 -8 18 -1 31 3 27 8 -3 6 12 12 32 14 30 3 25 4
-22 7 -107 5 -229 5 -285 -1z"/>
<path d="M2660 1690 l-65 -7 80 -1 c44 -1 87 3 95 8 17 11 -1 11 -110 0z"/>
<path d="M890 1682 c8 -5 51 -5 95 -2 l80 7 -95 1 c-52 1 -88 -2 -80 -6z"/>
<path d="M1907 1684 c-1 -1 -49 -5 -107 -9 -58 -4 -107 -8 -109 -11 -6 -6 152
-3 234 5 65 6 67 7 27 12 -24 2 -44 4 -45 3z"/>
<path d="M2033 1683 c15 -2 39 -2 55 0 15 2 2 4 -28 4 -30 0 -43 -2 -27 -4z"/>
<path d="M248 1673 c7 -3 16 -2 19 1 4 3 -2 6 -13 5 -11 0 -14 -3 -6 -6z"/>
<path d="M26 1660 c6 -6 34 -6 74 -1 l65 8 -74 2 c-48 1 -72 -2 -65 -9z"/>
<path d="M683 1663 c9 -2 23 -2 30 0 6 3 -1 5 -18 5 -16 0 -22 -2 -12 -5z"/>
<path d="M568 1653 c7 -3 16 -2 19 1 4 3 -2 6 -13 5 -11 0 -14 -3 -6 -6z"/>
<path d="M613 1653 c9 -2 25 -2 35 0 9 3 1 5 -18 5 -19 0 -27 -2 -17 -5z"/>
<path d="M240 1640 c0 -5 14 -10 32 -10 36 0 35 4 -4 14 -17 4 -28 2 -28 -4z"/>
<path d="M320 1640 c-12 -8 -11 -10 8 -10 12 0 22 5 22 10 0 13 -11 13 -30 0z"/>
<path d="M385 1640 c-4 -6 17 -10 57 -9 44 0 57 3 43 9 -28 12 -93 12 -100 0z"/>
<path d="M1433 1642 c-24 -2 -43 -7 -43 -11 0 -11 153 -1 165 10 9 9 -9 9
-122 1z"/>
<path d="M1593 1643 c9 -2 25 -2 35 0 9 3 1 5 -18 5 -19 0 -27 -2 -17 -5z"/>
<path d="M43 1633 c26 -2 45 -8 42 -14 -7 -10 18 -10 55 0 20 6 15 9 -30 14
-30 4 -68 6 -85 5 -17 -1 -9 -3 18 -5z"/>
<path d="M170 1615 c0 -8 4 -15 10 -15 5 0 7 7 4 15 -4 8 -8 15 -10 15 -2 0
-4 -7 -4 -15z"/>
<path d="M196 1616 c3 -8 12 -12 20 -9 21 8 17 23 -6 23 -13 0 -18 -5 -14 -14z"/>
<path d="M1173 1620 c-57 -3 -106 -9 -109 -13 -4 -4 0 -7 9 -7 9 0 17 -5 17
-11 0 -8 5 -8 15 1 10 8 36 11 75 8 33 -2 60 0 60 5 0 4 8 6 18 3 9 -3 42 1
72 8 l55 14 -55 -1 c-30 0 -101 -3 -157 -7z"/>
<path d="M15 1610 c-17 -8 -16 -8 8 -7 15 1 27 5 27 9 0 10 -9 9 -35 -2z"/>
<path d="M833 1587 c-4 -6 5 -8 21 -5 26 5 37 -6 14 -15 -7 -3 12 -5 42 -5 33
1 42 3 23 5 -18 2 -33 8 -33 13 0 5 15 11 33 13 17 2 4 4 -31 4 -35 0 -66 -5
-69 -10z"/>
<path d="M1120 1580 c0 -5 7 -7 15 -4 8 4 15 8 15 10 0 2 -7 4 -15 4 -8 0 -15
-4 -15 -10z"/>
<path d="M563 1574 c10 -10 77 -13 82 -3 4 5 -15 9 -41 9 -26 0 -45 -3 -41 -6z"/>
<path d="M670 1570 c-8 -5 -10 -10 -5 -10 6 0 17 5 25 10 8 5 11 10 5 10 -5 0
-17 -5 -25 -10z"/>
<path d="M766 1562 c-2 -4 12 -6 32 -4 56 5 62 10 15 11 -23 1 -44 -3 -47 -7z"/>
<path d="M310 1539 c25 -4 61 -7 80 -7 l35 0 -40 9 c-22 4 -58 8 -80 7 l-40
-1 45 -8z"/>
<path d="M598 1543 c17 -2 47 -2 65 0 17 2 3 4 -33 4 -36 0 -50 -2 -32 -4z"/>
<path d="M131 1528 c10 -7 6 -8 -13 -4 -29 7 -118 -3 -118 -13 0 -6 50 -7 183
-3 49 1 67 6 67 16 0 10 -17 14 -66 14 -45 0 -62 -4 -53 -10z"/>
</g>
</svg>
